<svg width="64" height="64" viewBox="0 0 64 64" xmlns="http://www.w3.org/2000/svg" aria-labelledby="title">
  <rect x="4" y="8" width="56" height="52" rx="0" ry="0" fill="#fff" stroke="#B20000" stroke-width="2" stroke-linecap="butt"/>
  <rect x="4" y="8" width="56" height="12" fill="#B20000"/>
  <line x1="16" y1="8"  x2="16" y2="20" stroke="#fff" stroke-width="2" stroke-linecap="butt"/>
  <line x1="32" y1="8"  x2="32" y2="20" stroke="#fff" stroke-width="2" stroke-linecap="butt"/>
  <line x1="48" y1="8"  x2="48" y2="20" stroke="#fff" stroke-width="2" stroke-linecap="butt"/>
  <g stroke="#B20000" stroke-width="1" stroke-linecap="butt">
    <line x1="4"  y1="20" x2="60" y2="20"/>
    <line x1="4"  y1="32" x2="60" y2="32"/>
    <line x1="4"  y1="44" x2="60" y2="44"/>
    <line x1="4"  y1="56" x2="60" y2="56"/>
    <line x1="16" y1="20" x2="16" y2="60"/>
    <line x1="32" y1="20" x2="32" y2="60"/>
    <line x1="48" y1="20" x2="48" y2="60"/>
  </g>
  <circle cx="48" cy="48" r="10" fill="#FFF" stroke="#B20000" stroke-width="2" stroke-linecap="butt"/>
  <line x1="48" y1="48" x2="48" y2="42" stroke="#B20000" stroke-width="2" stroke-linecap="butt"/>
  <line x1="48" y1="48" x2="52" y2="48" stroke="#B20000" stroke-width="2" stroke-linecap="butt"/>
</svg>
